# This file uses centimeters as units for non-parametric coordinates.

v -1.738238 -1.385302 -3.053957
v -1.738238 -1.385302 1.537682
v 2.238238 -1.385302 -0.758137
v -0.967893 5.967396 4.417214
v -0.967893 5.967396 7.229819
v 1.467893 5.967396 5.823518
v 1.036186 15.357244 10.983068
v -0.536185 15.357244 10.075258
v -0.536186 15.357244 11.890877
v 1.000000 24.093981 14.381473
v -0.500000 24.093981 13.515448
v -0.500000 24.093981 15.247498
v 1.000000 36.409489 16.847786
v -0.500000 36.409489 15.981760
v -0.500000 36.409489 17.713812
vt 0.012362 0.006760
vt 0.084542 0.019903
vt 0.098914 0.199520
vt 0.052853 0.191896
vt 0.108796 0.428899
vt 0.068432 0.423405
vt 0.113305 0.661731
vt 0.073188 0.657648
vt 0.109386 0.974710
vt 0.059594 0.971171
vt 0.184915 0.427589
vt 0.140795 0.022428
vt 0.142757 0.200476
vt 0.185753 0.659046
vt 0.145261 0.427744
vt 0.184092 0.200302
vt 0.147812 0.659182
vt 0.195108 0.022283
vt 0.151255 0.971644
vt 0.186885 0.971533
vn -0.146711 0.712544 -0.686117
vn -0.572284 -0.463671 0.676387
vn -0.388187 -0.475922 0.789183
vn -0.422880 0.619524 -0.661334
vn 0.856788 0.390860 -0.336368
vn 0.995371 -0.039485 0.087621
vn -0.478460 0.424900 -0.768463
vn 0.997139 -0.023904 0.071717
vn -0.428634 -0.359259 0.828979
vn -0.494651 0.243218 -0.834365
vn 0.999592 -0.018548 0.021738
vn -0.476132 -0.228479 0.849174
vn -0.535137 0.165880 -0.828319
vn 0.993941 -0.021584 0.107778
vn -0.439834 -0.176349 0.880595
s 1
f 1/1/1 2/2/2 5/3/3 4/4/4
f 2/2/2 3/12/5 6/13/6 5/3/3
f 3/12/5 1/18/1 4/16/4 6/13/6
f 6/13/6 4/16/4 8/11/7 7/15/8
f 4/4/4 5/3/3 9/5/9 8/6/7
f 5/3/3 6/13/6 7/15/8 9/5/9
f 7/15/8 8/11/7 11/14/10 10/17/11
f 8/6/7 9/5/9 12/7/12 11/8/10
f 9/5/9 7/15/8 10/17/11 12/7/12
f 10/17/11 11/14/10 14/20/13 13/19/14
f 11/8/10 12/7/12 15/9/15 14/10/13
f 12/7/12 10/17/11 13/19/14 15/9/15
